<svg width="20" height="19" viewBox="0 0 20 19" fill="none" xmlns="http://www.w3.org/2000/svg">
<path d="M10 13.2072C11.6569 13.2072 13 12.0133 13 10.5406C13 9.06781 11.6569 7.8739 10 7.8739C8.34315 7.8739 7 9.06781 7 10.5406C7 12.0133 8.34315 13.2072 10 13.2072Z" stroke="#919488" stroke-width="2" stroke-linecap="round" stroke-linejoin="round"/>
<path d="M1 8.37618C1 7.86565 1 7.61038 1.07403 7.37529C1.1396 7.16706 1.24737 6.9712 1.39203 6.79734C1.55534 6.60108 1.78202 6.44436 2.23539 6.13092L9.0177 1.44191C9.36902 1.19902 9.54468 1.07758 9.73865 1.03089C9.9098 0.989702 10.0902 0.989702 10.2613 1.03089C10.4553 1.07758 10.631 1.19902 10.9823 1.44191L17.7646 6.13092C18.218 6.44436 18.4447 6.60108 18.608 6.79734C18.7526 6.9712 18.8604 7.16706 18.926 7.37529C19 7.61038 19 7.86565 19 8.37618V14.8072C19 15.8029 19 16.3007 18.782 16.681C18.5903 17.0155 18.2843 17.2875 17.908 17.4579C17.4802 17.6517 16.9201 17.6517 15.8 17.6517H4.2C3.07989 17.6517 2.51984 17.6517 2.09202 17.4579C1.71569 17.2875 1.40973 17.0155 1.21799 16.681C1 16.3007 1 15.8029 1 14.8072V8.37618Z" stroke="#919488" stroke-width="2" stroke-linecap="round" stroke-linejoin="round"/>
</svg>
