<svg width="18" height="20" viewBox="0 0 18 20" fill="none" xmlns="http://www.w3.org/2000/svg">
<path d="M8.30201 18.5465C8.5234 18.6613 8.6341 18.7187 8.79032 18.7485C8.91156 18.7716 9.08844 18.7716 9.20968 18.7485C9.3659 18.7187 9.4766 18.6613 9.69799 18.5465C11.646 17.5363 17 14.363 17 9.99995V6.62217C17 5.6676 17 5.19031 16.8345 4.85151C16.6662 4.50715 16.4986 4.32396 16.1536 4.10742C15.8141 3.89437 15.1486 3.77135 13.8177 3.5253C12.3508 3.25412 11.2243 2.76443 10.1944 2.05624C9.70051 1.71663 9.45357 1.54683 9.26034 1.50052C9.05644 1.45165 8.94356 1.45165 8.73966 1.50052C8.54643 1.54683 8.29949 1.71663 7.80562 2.05624C6.77572 2.76443 5.6492 3.25412 4.1823 3.5253C2.85137 3.77135 2.18591 3.89437 1.84645 4.10742C1.50142 4.32396 1.33379 4.50715 1.16554 4.85151C1 5.19031 1 5.6676 1 6.62217V9.99995C1 14.363 6.35396 17.5363 8.30201 18.5465Z" stroke="white" stroke-width="2" stroke-linecap="round" stroke-linejoin="round"/>
</svg>
