<svg width="26" height="24" viewBox="0 0 26 24" fill="none" xmlns="http://www.w3.org/2000/svg">
<path d="M18 18.2499L24.25 11.9999M24.25 11.9999L18 5.7499M24.25 11.9999H9.25M13 18.2499C13 18.6194 13 18.8041 12.9863 18.9641C12.8435 20.6274 11.6186 21.996 9.98129 22.3215C9.82378 22.3528 9.64002 22.3732 9.27294 22.414L7.99618 22.5559C6.0781 22.769 5.11901 22.8756 4.35708 22.6317C3.34117 22.3066 2.51177 21.5643 2.07647 20.5905C1.75 19.8602 1.75 18.8952 1.75 16.9653V7.03451C1.75 5.1046 1.75 4.13964 2.07647 3.40929C2.51177 2.4355 3.34117 1.69315 4.35708 1.36805C5.11902 1.12423 6.07807 1.23079 7.99618 1.44392L9.27294 1.58578C9.64015 1.62658 9.82376 1.64698 9.98129 1.6783C11.6186 2.00384 12.8435 3.37244 12.9863 5.03566C13 5.19569 13 5.38042 13 5.7499" stroke="black" stroke-width="2" stroke-linecap="round" stroke-linejoin="round"/>
</svg>
