<svg width="22" height="18" viewBox="0 0 22 18" fill="none" xmlns="http://www.w3.org/2000/svg">
<path d="M21 17V15.2222C21 13.5655 19.7252 12.1734 18 11.7787M14.5 1.25845C15.9659 1.78591 17 3.06339 17 4.55556C17 6.04772 15.9659 7.3252 14.5 7.85266M16 17C16 15.3433 16 14.515 15.6955 13.8616C15.2895 12.9904 14.5108 12.2982 13.5307 11.9373C12.7956 11.6667 11.8638 11.6667 10 11.6667H7C5.13623 11.6667 4.20435 11.6667 3.46927 11.9373C2.48915 12.2982 1.71046 12.9904 1.30448 13.8616C1 14.515 1 15.3433 1 17M12.5 4.55556C12.5 6.51923 10.7091 8.11111 8.5 8.11111C6.29086 8.11111 4.5 6.51923 4.5 4.55556C4.5 2.59188 6.29086 1 8.5 1C10.7091 1 12.5 2.59188 12.5 4.55556Z" stroke="white" stroke-width="2" stroke-linecap="round" stroke-linejoin="round"/>
</svg>
