<svg width="1280" height="246" viewBox="0 0 1280 246" fill="none" xmlns="http://www.w3.org/2000/svg">
<path fill-rule="evenodd" clip-rule="evenodd" d="M-443 217L-385.118 210.219C-328.582 202.307 -212.818 187.615 -98.4 159.359C16.018 129.974 131.782 87.026 246.2 93.8073C360.618 101.719 476.382 159.359 590.8 187.615C705.218 217 820.982 217 935.4 210.219C1049.82 202.307 1165.58 187.615 1222.12 180.833L1280 174.052V0H1222.12C1165.58 0 1049.82 0 935.4 0C820.982 0 705.218 0 590.8 0C476.382 0 360.618 0 246.2 0C131.782 0 16.018 0 -98.4 0C-212.818 0 -328.582 0 -385.118 0H-443V217Z" fill="#004E92" fill-opacity="0.2"/>
<path fill-rule="evenodd" clip-rule="evenodd" d="M0 246L57.882 239.219C114.418 231.307 230.182 216.615 344.6 188.359C459.018 158.974 574.782 116.026 689.2 122.807C803.618 130.719 919.382 188.359 1033.8 216.615C1148.22 246 1263.98 246 1378.4 239.219C1492.82 231.307 1608.58 216.615 1665.12 209.833L1723 203.052V29H1665.12C1608.58 29 1492.82 29 1378.4 29C1263.98 29 1148.22 29 1033.8 29C919.382 29 803.618 29 689.2 29C574.782 29 459.018 29 344.6 29C230.182 29 114.418 29 57.882 29H0V246Z" fill="#004E92" fill-opacity="0.4"/>
<path fill-rule="evenodd" clip-rule="evenodd" d="M0 205L43 198.594C85 191.12 171 177.24 256 150.547C341 122.786 427 82.2135 512 88.6198C597 96.0938 683 150.547 768 177.24C853 205 939 205 1024 198.594C1109 191.12 1195 177.24 1237 170.833L1280 164.427V0H1237C1195 0 1109 0 1024 0C939 0 853 0 768 0C683 0 597 0 512 0C427 0 341 0 256 0C171 0 85 0 43 0H0V205Z" fill="#004E92"/>
</svg>
