<svg width="1280" height="850" viewBox="0 0 1280 850" fill="none" xmlns="http://www.w3.org/2000/svg">
<path fill-rule="evenodd" clip-rule="evenodd" d="M-75.4189 -367.007L-16.3897 -312.616C42.0662 -257.49 158.978 -147.239 302.838 -71.4808C446.698 4.2779 617.506 45.5444 743.592 144.053C869.678 242.562 951.041 398.314 992.295 475.455L1032.98 553.331L899.956 723.59L836.913 674.336C773.87 625.081 647.784 526.572 521.699 428.064C395.613 329.555 269.528 231.046 143.442 132.537C17.3563 34.028 -108.729 -64.4809 -171.772 -113.735L-234.815 -162.99L-75.4189 -367.007Z" fill="#A8C856"/>
<path fill-rule="evenodd" clip-rule="evenodd" d="M1148.64 1302.69L1091.53 1246.29C1035.01 1189.18 921.986 1074.95 780.834 994.255C639.681 913.564 470.403 866.412 347.801 763.6C225.199 660.788 149.274 502.314 110.713 423.791L72.7505 344.555L211.583 179L272.884 230.406C334.185 281.812 456.786 384.625 579.388 487.437C701.99 590.25 824.592 693.062 947.193 795.875C1069.8 898.687 1192.4 1001.5 1253.7 1052.91L1315 1104.31L1148.64 1302.69Z" fill="#A8C856"/>
<path fill-rule="evenodd" clip-rule="evenodd" d="M73.9072 -277.874L131.896 -248.396C189.884 -218.918 305.861 -159.961 403.544 -77.2286C501.227 5.50408 580.614 112.013 685.615 185.235C790.615 258.457 953.179 302.299 1072.81 356.5C1192.45 410.701 1269.16 475.263 1323.49 509.496L1377.82 543.73L1246.1 714.918L1195.43 675.929C1144.76 636.941 1043.41 558.963 942.073 480.986C840.732 403.008 739.39 325.031 638.049 247.053C536.707 169.076 435.366 91.0983 334.024 13.1208C232.683 -64.8567 131.341 -142.834 80.6708 -181.823L30 -220.812L73.9072 -277.874Z" fill="#82B10E"/>
<path fill-rule="evenodd" clip-rule="evenodd" d="M1348.73 1117.92L1283.86 1101.22C1219 1084.51 1089.28 1051.11 985.834 975.281C882.391 899.455 805.229 781.207 691.273 722.349C577.317 663.491 426.568 664.022 291.588 639.1C156.607 614.179 37.3956 563.804 -22.2103 538.617L-81.8163 513.43L107.407 208L161.756 241.671C216.106 275.342 324.805 342.685 433.505 410.027C542.204 477.37 650.904 544.712 759.603 612.055C868.303 679.397 977.002 746.74 1085.7 814.082C1194.4 881.424 1303.1 948.767 1357.45 982.438L1411.8 1016.11L1348.73 1117.92Z" fill="#82B10E"/>
<path fill-rule="evenodd" clip-rule="evenodd" d="M88.2266 -216.15L152.091 -151.066C214.904 -84.6349 340.528 48.2274 515.624 117.769C690.72 187.311 915.287 193.532 1057.75 304.839C1200.22 416.145 1278.26 552.151 1309.5 659L1322 847.582L1077.8 1160.14L1006.57 1104.49C935.335 1048.84 872.648 977.307 730.182 866C587.717 754.694 413.921 793.347 264.895 608.452C20.1821 304.839 -19.9903 441.817 -91.2232 386.163L-204.392 158.384L88.2266 -216.15Z" fill="#004E92"/>
</svg>
