<svg width="1280" height="315" viewBox="0 0 1280 315" fill="none" xmlns="http://www.w3.org/2000/svg">
<path fill-rule="evenodd" clip-rule="evenodd" d="M-443 277.866L-385.118 269.183C-328.582 259.052 -212.818 240.238 -98.4 204.058C16.018 166.43 131.782 111.436 246.2 120.119C360.618 130.25 476.382 204.058 590.8 240.238C705.218 277.866 820.982 277.866 935.4 269.183C1049.82 259.052 1165.58 240.238 1222.12 231.555L1280 222.872V0H1222.12C1165.58 0 1049.82 0 935.4 0C820.982 0 705.218 0 590.8 0C476.382 0 360.618 0 246.2 0C131.782 0 16.018 0 -98.4 0C-212.818 0 -328.582 0 -385.118 0H-443V277.866Z" fill="#004E92" fill-opacity="0.2"/>
<path fill-rule="evenodd" clip-rule="evenodd" d="M0 315L57.882 306.317C114.418 296.186 230.182 277.372 344.6 241.192C459.018 203.564 574.782 148.57 689.2 157.253C803.618 167.384 919.382 241.192 1033.8 277.372C1148.22 315 1263.98 315 1378.4 306.317C1492.82 296.186 1608.58 277.372 1665.12 268.689L1723 260.006V37.1342H1665.12C1608.58 37.1342 1492.82 37.1342 1378.4 37.1342C1263.98 37.1342 1148.22 37.1342 1033.8 37.1342C919.382 37.1342 803.618 37.1342 689.2 37.1342C574.782 37.1342 459.018 37.1342 344.6 37.1342C230.182 37.1342 114.418 37.1342 57.882 37.1342H0V315Z" fill="#004E92" fill-opacity="0.4"/>
<path fill-rule="evenodd" clip-rule="evenodd" d="M0 262.5L43 254.297C85 244.727 171 226.953 256 192.773C341 157.227 427 105.273 512 113.477C597 123.047 683 192.773 768 226.953C853 262.5 939 262.5 1024 254.297C1109 244.727 1195 226.953 1237 218.75L1280 210.547V0H1237C1195 0 1109 0 1024 0C939 0 853 0 768 0C683 0 597 0 512 0C427 0 341 0 256 0C171 0 85 0 43 0H0V262.5Z" fill="#004E92"/>
</svg>
