<svg width="1280" height="850" viewBox="0 0 1280 850" fill="none" xmlns="http://www.w3.org/2000/svg">
<path fill-rule="evenodd" clip-rule="evenodd" d="M296.916 -461.465L356.713 -402.685C415.9 -343.175 534.272 -224.155 681.371 -139.43C828.471 -54.7049 1004.3 -4.27492 1132.45 103.07C1260.6 210.415 1341.08 374.675 1381.93 456.076L1422.17 538.205L1280.37 707.491L1216.29 653.819C1152.21 600.146 1024.06 492.801 895.911 385.456C767.759 278.111 639.607 170.766 511.455 63.421C383.304 -43.924 255.152 -151.269 191.076 -204.942L127 -258.614L296.916 -461.465Z" fill="#A8C856"/>
<path fill-rule="evenodd" clip-rule="evenodd" d="M65.8557 -400.067L128.472 -379.556C191.089 -359.044 316.322 -318.02 420.366 -243.26C524.409 -168.5 607.263 -60.0043 719.782 1.26116C832.301 62.5266 1009.52 72.8676 1138.99 107.144C1268.46 141.421 1350.19 199.633 1408.56 226.893L1466.94 254.152L1314.38 497.05L1260.24 463.044C1206.1 429.038 1097.81 361.025 989.532 293.013C881.251 225 772.97 156.987 664.688 88.9746C556.407 20.9619 448.126 -47.0507 339.844 -115.063C231.563 -183.076 123.281 -251.089 69.1407 -285.095L15 -319.101L65.8557 -400.067Z" fill="#82B10E"/>
<path fill-rule="evenodd" clip-rule="evenodd" d="M957.455 1353.69L900.343 1297.29C843.83 1240.18 730.803 1125.95 589.65 1045.26C448.498 964.564 279.219 917.413 156.618 814.6C34.0158 711.788 -41.9095 553.315 -80.4705 474.792L-118.433 395.555L20.3993 230L81.7002 281.406C143.001 332.813 265.603 435.625 388.205 538.437C510.806 641.25 633.408 744.062 756.01 846.875C878.611 949.687 1001.21 1052.5 1062.51 1103.91L1123.81 1155.31L957.455 1353.69Z" fill="#A8C856"/>
<path fill-rule="evenodd" clip-rule="evenodd" d="M1157.54 1168.92L1092.68 1152.22C1027.82 1135.51 898.094 1102.11 794.65 1026.28C691.207 950.455 614.045 832.207 500.089 773.349C386.134 714.491 235.385 715.022 100.404 690.1C-34.5763 665.179 -153.788 614.805 -213.394 589.618L-273 564.431L-83.777 259L-29.4272 292.671C24.9225 326.343 133.622 393.685 242.321 461.027C351.021 528.37 459.72 595.712 568.42 663.055C677.119 730.397 785.819 797.74 894.518 865.082C1003.22 932.425 1111.92 999.767 1166.27 1033.44L1220.62 1067.11L1157.54 1168.92Z" fill="#82B10E"/>
<path fill-rule="evenodd" clip-rule="evenodd" d="M171.014 -301.72L231.897 -232.82C291.301 -162.027 410.11 -20.4406 598.411 32.1992C786.712 84.8389 1044.51 48.5324 1186.97 159.839C1329.44 271.145 1392.75 426.007 1407.8 553.574L1385.19 787.092L1042.17 1226.15L970.933 1170.49C899.7 1114.84 841.441 1037.64 698.976 926.336C556.51 815.029 348.465 897.519 212.881 695.419C-9.7586 363.554 -82.9874 542.842 -154.22 487.189L-240.027 224.388L171.014 -301.72Z" fill="#004E92"/>
</svg>
