<svg width="17" height="17" viewBox="0 0 17 17" fill="none" xmlns="http://www.w3.org/2000/svg">
<path d="M2.875 16V12.25M2.875 4.75V1M1 2.875H4.75M1 14.125H4.75M9.25 1.75L7.94937 5.13165C7.73786 5.68157 7.6321 5.95653 7.46765 6.18781C7.32189 6.3928 7.1428 6.57189 6.93781 6.71765C6.70653 6.8821 6.43157 6.98786 5.88165 7.19937L2.5 8.5L5.88165 9.80063C6.43157 10.0121 6.70653 10.1179 6.93781 10.2824C7.1428 10.4281 7.32189 10.6072 7.46765 10.8122C7.6321 11.0435 7.73786 11.3184 7.94937 11.8684L9.25 15.25L10.5506 11.8684C10.7621 11.3184 10.8679 11.0435 11.0324 10.8122C11.1781 10.6072 11.3572 10.4281 11.5622 10.2824C11.7935 10.1179 12.0684 10.0121 12.6184 9.80063L16 8.5L12.6184 7.19937C12.0684 6.98786 11.7935 6.8821 11.5622 6.71765C11.3572 6.57189 11.1781 6.3928 11.0324 6.18781C10.8679 5.95653 10.7621 5.68157 10.5506 5.13165L9.25 1.75Z" stroke="#F4BB44" stroke-width="2" stroke-linecap="round" stroke-linejoin="round"/>
</svg>
