<svg width="27" height="27" viewBox="0 0 27 27" fill="none" xmlns="http://www.w3.org/2000/svg">
<path d="M13.5 1L11.8731 7.50749C11.5557 8.77731 11.3969 9.41222 11.0664 9.92886C10.7739 10.3858 10.3858 10.7739 9.92886 11.0664C9.41222 11.3969 8.77731 11.5557 7.50749 11.8731L1 13.5L7.50749 15.1269C8.77731 15.4443 9.41222 15.6031 9.92886 15.9336C10.3858 16.2261 10.7739 16.6142 11.0664 17.0711C11.3969 17.5878 11.5557 18.2227 11.8731 19.4925L13.5 26L15.1269 19.4925C15.4443 18.2227 15.6031 17.5878 15.9336 17.0711C16.2261 16.6142 16.6142 16.2261 17.0711 15.9336C17.5878 15.6031 18.2227 15.4443 19.4925 15.1269L26 13.5L19.4925 11.8731C18.2227 11.5557 17.5878 11.3969 17.0711 11.0664C16.6142 10.7739 16.2261 10.3858 15.9336 9.92886C15.6031 9.41222 15.4443 8.77731 15.1269 7.50749L13.5 1Z" stroke="black" stroke-width="2" stroke-linecap="round" stroke-linejoin="round"/>
</svg>
