<svg width="26" height="28" viewBox="0 0 26 28" fill="none" xmlns="http://www.w3.org/2000/svg">
<path d="M23.625 8.34717L13 14.2499M13 14.2499L2.37496 8.34717M13 14.2499L13 26.125M24.25 19.3232V9.17679C24.25 8.74849 24.25 8.53433 24.1869 8.34334C24.1311 8.17437 24.0398 8.01926 23.9192 7.8884C23.7829 7.74048 23.5957 7.63648 23.2213 7.42848L13.9713 2.28959C13.6168 2.09264 13.4395 1.99417 13.2518 1.95556C13.0857 1.92139 12.9143 1.92139 12.7482 1.95556C12.5605 1.99417 12.3832 2.09264 12.0287 2.28959L2.77871 7.42848C2.40431 7.63648 2.21711 7.74048 2.08079 7.8884C1.9602 8.01927 1.86893 8.17437 1.81311 8.34334C1.75 8.53434 1.75 8.74849 1.75 9.17679V19.3232C1.75 19.7515 1.75 19.9656 1.81311 20.1566C1.86893 20.3256 1.9602 20.4807 2.08079 20.6116C2.21711 20.7595 2.40431 20.8635 2.77872 21.0715L12.0287 26.2104C12.3832 26.4073 12.5605 26.5058 12.7482 26.5444C12.9143 26.5786 13.0857 26.5786 13.2518 26.5444C13.4395 26.5058 13.6168 26.4073 13.9713 26.2104L23.2213 21.0715C23.5957 20.8635 23.7829 20.7595 23.9192 20.6116C24.0398 20.4807 24.1311 20.3256 24.1869 20.1566C24.25 19.9656 24.25 19.7515 24.25 19.3232Z" stroke="black" stroke-width="2" stroke-linecap="round" stroke-linejoin="round"/>
</svg>
