<svg width="26" height="25" viewBox="0 0 26 25" fill="none" xmlns="http://www.w3.org/2000/svg">
<path d="M18 18.5L24.25 12.25L18 6.00002" fill="#FAF9F6"/>
<path d="M18 18.5L24.25 12.25M24.25 12.25L18 6.00002M24.25 12.25H9.25M13 18.5C13 18.8695 13 19.0542 12.9863 19.2143C12.8435 20.8775 11.6186 22.2461 9.98129 22.5716C9.82378 22.6029 9.64002 22.6234 9.27294 22.6641L7.99618 22.806C6.0781 23.0191 5.11901 23.1257 4.35708 22.8819C3.34117 22.5568 2.51177 21.8144 2.07647 20.8406C1.75 20.1103 1.75 19.1453 1.75 17.2154V7.28464C1.75 5.35472 1.75 4.38977 2.07647 3.65942C2.51177 2.68562 3.34117 1.94327 4.35708 1.61818C5.11902 1.37435 6.07807 1.48091 7.99618 1.69404L9.27294 1.8359C9.64015 1.8767 9.82376 1.8971 9.98129 1.92843C11.6186 2.25396 12.8435 3.62257 12.9863 5.28578C13 5.44581 13 5.63055 13 6.00002" stroke="#FAF9F6" stroke-width="2" stroke-linecap="round" stroke-linejoin="round"/>
</svg>
