<svg width="22" height="25" viewBox="0 0 22 25" fill="none" xmlns="http://www.w3.org/2000/svg">
<path d="M21 23.5C21 21.7555 21 20.8833 20.7847 20.1736C20.2999 18.5756 19.0494 17.325 17.4514 16.8403C16.7417 16.625 15.8695 16.625 14.125 16.625H7.87501C6.13055 16.625 5.25832 16.625 4.54857 16.8403C2.95057 17.325 1.70005 18.5756 1.2153 20.1736C1 20.8833 1 21.7555 1 23.5M16.625 6.625C16.625 9.7316 14.1066 12.25 11 12.25C7.8934 12.25 5.375 9.7316 5.375 6.625C5.375 3.5184 7.8934 1 11 1C14.1066 1 16.625 3.5184 16.625 6.625Z" stroke="black" stroke-width="2" stroke-linecap="round" stroke-linejoin="round"/>
</svg>
